# xmcd CD database file
#
# Track frame offsets:
#	150
#	11757
#	28750
#	42047
#	57422
#	71782
#	86820
#	99465
#	113877
#	127305
#	139670
#	154122
#	164030
#	176800
#	196082
#	217657
#	228992
#	240975
#	254792
#	269527
#	282885
#	298197
#	309142
#
# Disc length: 4332 seconds
#
# Revision: 0
# Processed by: cddbd v1.5.2PL0 Copyright (c) Steve Scherf et al.
# Submitted via: CDex 1.70beta2
#
DISCID=5810ea17
DTITLE=Jones Classic Country - Jones Classic Country CCC-615
DYEAR=0000
DGENRE=Country
TTITLE0=larry gatlin and the gatlin brothers/night time magic
TTITLE1=lee greenwood/somebody's gonna love you
TTITLE2=Merle Haggard/fightin' side of me
TTITLE3=Merle Haggard/it's not love (but it's not bad)
TTITLE4=Merle Haggard/always wanting you
TTITLE5=Merle Haggard and the strangers/it's all in the movies
TTITLE6=Merle Haggard/roots of my raising
TTITLE7=Merle Haggard/ramblin' fever
TTITLE8=Merle Haggard/my own kind of hat
TTITLE9=Merle Haggard/rainbow stew
TTITLE10=Merle Haggard and Janie Fricke/natural high
TTITLE11=Tom T Hall/i love
TTITLE12=waylon jennings/i'm a ramblin' man
TTITLE13=waylon jennings/i've always been crazy
TTITLE14=waylon jennings/i ain't living long like this
TTITLE15=george jones/why baby why
TTITLE16=george jones/she thinks i still care
TTITLE17=george jones/i'm not ready yet
TTITLE18=george jones/if i'm drinkin' don't kill me (her memory will)
TTITLE19=george jones/tennessee whiskey
TTITLE20=george jones/wine colored roses
TTITLE21=kendalls/heaven's just a sin away
TTITLE22=kris kristofferson/why me
EXTD=YEAR: 0000
EXTT0=
EXTT1=
EXTT2=
EXTT3=
EXTT4=
EXTT5=
EXTT6=
EXTT7=
EXTT8=
EXTT9=
EXTT10=
EXTT11=
EXTT12=
EXTT13=
EXTT14=
EXTT15=
EXTT16=
EXTT17=
EXTT18=
EXTT19=
EXTT20=
EXTT21=
EXTT22=
PLAYORDER=
